<?xml version="1.0" standalone="no"?>
<!DOCTYPE svg PUBLIC "-//W3C//DTD SVG 20010904//EN"
 "http://www.w3.org/TR/2001/REC-SVG-20010904/DTD/svg10.dtd">
<svg version="1.0" xmlns="http://www.w3.org/2000/svg"
 width="1024.000000pt" height="1024.000000pt" viewBox="0 0 1024.000000 1024.000000"
 preserveAspectRatio="xMidYMid meet">
<metadata>
Created by potrace 1.14, written by Peter Selinger 2001-2017
</metadata>
<g transform="translate(0.000000,1024.000000) scale(0.100000,-0.100000)"
fill="#000000" stroke="none">
<path d="M3911 8401 c-1 -8 -8 -11 -21 -8 -11 3 -20 0 -20 -6 0 -8 -3 -8 -8
-2 -4 6 -34 10 -67 10 -33 0 -63 -4 -67 -10 -5 -7 -8 -7 -8 0 0 13 -143 13
-152 0 -5 -7 -8 -7 -8 0 0 15 -293 6 -319 -9 -6 -4 -11 -2 -11 4 0 6 -5 8 -12
3 -12 -7 -33 -10 -105 -16 -17 -1 -29 -5 -27 -8 2 -3 -13 -6 -33 -7 -20 -1
-39 -5 -42 -10 -3 -5 -16 -8 -28 -7 -13 1 -23 -2 -23 -7 0 -5 -4 -7 -9 -3 -5
3 -12 1 -16 -5 -4 -6 -11 -8 -16 -5 -5 4 -9 1 -9 -5 0 -7 -7 -10 -15 -6 -8 3
-15 0 -15 -6 0 -6 -3 -9 -6 -5 -4 3 -21 -1 -38 -10 -17 -10 -33 -18 -36 -18
-3 -1 -18 -7 -35 -14 -16 -7 -32 -12 -34 -11 -2 1 -7 -2 -10 -7 -8 -11 -42
-32 -63 -39 -10 -4 -18 -10 -18 -15 0 -5 -6 -9 -12 -9 -7 0 -26 -11 -43 -25
-16 -14 -40 -33 -53 -43 -13 -9 -32 -25 -43 -34 -10 -10 -23 -18 -29 -18 -5 0
-10 -8 -10 -17 0 -9 -3 -14 -6 -11 -3 4 -32 -20 -65 -53 -32 -32 -58 -60 -56
-62 1 -1 -13 -16 -30 -33 -18 -17 -33 -34 -33 -38 0 -7 -12 -23 -42 -57 -10
-10 -15 -19 -10 -19 4 0 2 -4 -3 -8 -6 -4 -19 -24 -30 -44 -11 -21 -23 -38
-28 -38 -4 0 -5 -5 -2 -10 3 -6 0 -12 -7 -15 -8 -3 -14 -14 -15 -25 -1 -11 -9
-27 -17 -36 -9 -9 -14 -20 -11 -25 4 -5 2 -9 -4 -9 -6 0 -13 -16 -17 -35 -3
-19 -10 -35 -15 -35 -4 0 -6 -9 -4 -20 2 -11 0 -18 -6 -15 -5 4 -10 1 -10 -4
-2 -11 -5 -26 -9 -38 -4 -13 -7 -27 -8 -41 -1 -8 -7 -10 -14 -6 -9 5 -9 2 1
-9 7 -9 9 -17 4 -17 -9 0 -11 -6 -15 -50 -1 -11 -5 -20 -8 -20 -4 0 -7 -6 -7
-12 0 -7 -6 -40 -14 -73 -7 -33 -13 -72 -13 -87 0 -16 -2 -28 -5 -28 -3 0 -6
-27 -6 -60 0 -33 -3 -60 -7 -60 -4 0 -3 -11 2 -25 5 -14 6 -25 2 -25 -6 0 -9
-381 -2 -405 1 -5 1 -12 0 -15 -8 -17 -4 -100 5 -100 6 0 7 -3 0 -8 -13 -9
-14 -145 0 -154 6 -5 6 -8 0 -8 -11 0 -12 -420 -1 -439 4 -6 3 -11 -2 -11 -10
0 -8 -93 3 -109 3 -6 3 -11 -2 -11 -4 0 -8 -36 -8 -79 0 -45 4 -77 9 -74 5 4
6 0 1 -7 -13 -20 -14 -60 -3 -60 6 0 5 -6 -2 -15 -9 -11 -10 -18 -1 -28 6 -8
8 -17 4 -20 -10 -10 -11 -117 -1 -117 5 0 6 -6 1 -12 -11 -18 -10 -468 1 -468
5 0 4 -6 -1 -12 -13 -16 -13 -48 -1 -48 5 0 6 -5 2 -12 -9 -14 -8 -103 1 -118
3 -6 3 -10 -2 -10 -4 0 -8 -59 -8 -130 0 -80 4 -130 10 -130 7 0 6 -3 0 -8
-14 -10 -14 -384 0 -394 7 -5 6 -8 0 -8 -9 0 -13 -64 -5 -80 1 -3 1 -9 0 -15
-8 -28 -4 -475 4 -475 4 0 3 -7 -4 -15 -10 -12 -10 -18 -1 -29 8 -9 8 -16 2
-20 -6 -4 -6 -18 -1 -36 5 -18 5 -32 -1 -36 -6 -4 -6 -11 1 -19 6 -8 12 -29
12 -47 0 -18 3 -37 6 -43 6 -9 7 -16 15 -64 2 -11 9 -26 16 -35 10 -12 11 -16
1 -16 -9 0 -8 -7 4 -25 9 -13 16 -33 16 -43 0 -10 5 -23 12 -30 7 -7 9 -12 5
-12 -4 0 -1 -13 7 -29 9 -16 12 -31 9 -35 -4 -3 0 -6 7 -6 7 0 10 -3 7 -7 -4
-3 0 -17 8 -30 9 -13 12 -23 8 -23 -5 0 -3 -4 4 -8 6 -4 13 -16 15 -27 1 -11
10 -27 18 -35 8 -8 16 -21 18 -29 1 -7 13 -27 26 -45 13 -17 26 -39 29 -49 4
-9 11 -17 17 -17 5 0 10 -4 10 -10 0 -10 26 -44 63 -82 9 -10 17 -22 17 -28 0
-5 5 -10 10 -10 6 0 10 -7 10 -16 0 -8 3 -13 8 -11 4 3 13 -1 20 -9 7 -8 10
-14 7 -14 -3 0 11 -15 31 -32 21 -18 41 -32 46 -31 4 2 8 -3 8 -11 0 -8 9 -18
20 -21 11 -3 20 -10 20 -15 0 -5 9 -11 19 -15 11 -3 23 -15 26 -26 4 -10 10
-17 15 -14 4 3 13 -2 20 -10 7 -8 19 -15 27 -15 8 0 11 -5 7 -12 -5 -7 -2 -9
9 -5 9 3 18 0 21 -9 3 -9 10 -13 15 -9 5 3 12 1 15 -4 9 -14 107 -61 99 -48
-3 7 6 1 20 -12 15 -14 27 -21 27 -17 0 5 12 1 26 -9 15 -9 23 -12 19 -5 -4 7
4 4 18 -5 15 -9 31 -14 37 -10 5 3 10 2 10 -3 0 -9 33 -18 87 -25 12 -2 25 -6
28 -9 4 -4 13 -4 21 -1 8 3 14 1 14 -4 0 -5 16 -8 35 -8 20 1 38 -1 40 -5 2
-3 18 -5 34 -4 17 1 31 -2 31 -6 0 -11 33 -7 42 5 5 7 8 6 8 -1 0 -7 160 -10
524 -10 367 0 523 3 518 10 -4 7 -1 7 9 0 15 -12 226 -14 245 -2 6 4 14 4 18
0 12 -11 76 -9 76 2 0 7 3 8 8 1 10 -14 112 -16 112 -1 0 7 3 8 8 1 4 -6 25
-11 47 -11 22 0 43 5 47 11 5 7 8 7 8 -1 0 -12 118 -14 136 -2 6 4 14 4 18 0
12 -11 146 -9 146 3 0 7 3 6 8 0 8 -12 81 -14 98 -3 6 4 14 4 18 0 12 -11 76
-9 76 2 0 8 3 8 8 1 4 -6 25 -11 47 -11 22 0 43 5 47 11 5 7 8 6 8 -1 0 -12
38 -13 57 -1 6 4 14 3 17 -1 6 -10 46 -10 62 1 6 3 14 3 18 -1 12 -11 76 -9
76 2 0 8 3 8 8 1 8 -12 41 -13 59 -2 6 4 14 4 17 -1 6 -10 66 -9 83 1 6 4 14
3 17 -1 6 -10 46 -10 62 1 6 3 14 3 18 0 12 -12 56 -11 56 1 0 7 3 8 8 1 9
-14 45 -14 54 0 5 7 8 6 8 -1 0 -12 44 -13 56 -1 4 3 14 2 23 -2 25 -14 33
-14 42 1 5 7 9 8 9 2 0 -12 29 -12 48 0 6 4 12 3 12 -3 0 -9 7 -9 45 -1 6 1
13 1 18 0 23 -7 87 -3 87 5 0 7 3 7 8 0 8 -12 32 -13 49 -2 6 4 14 3 17 -2 7
-10 25 -9 43 2 6 4 14 3 17 -2 7 -10 25 -9 44 2 6 5 12 4 12 0 0 -5 11 -9 25
-9 14 0 25 4 25 9 0 4 6 5 13 0 16 -11 29 -11 49 -1 9 4 19 4 22 -1 7 -10 25
-9 44 2 6 5 12 4 12 0 0 -5 9 -9 20 -9 11 0 20 4 20 9 0 5 6 4 14 -2 10 -9 16
-9 21 -1 5 8 11 8 19 1 9 -7 16 -7 24 1 9 9 12 9 12 0 0 -9 5 -10 19 -2 14 7
22 7 26 0 4 -7 11 -8 18 -2 7 6 23 9 37 8 14 -1 35 1 47 6 13 4 25 3 29 -3 4
-7 10 -7 18 0 7 6 16 8 19 4 4 -3 7 -1 7 7 0 9 3 10 14 1 11 -9 15 -9 18 1 3
7 20 13 39 13 19 1 54 8 79 15 25 7 48 14 53 16 4 1 9 3 12 4 3 1 10 4 15 5 6
1 13 4 18 5 4 1 10 2 15 1 4 0 7 4 7 10 0 6 8 9 18 7 10 -3 23 1 30 9 7 7 17
11 23 8 5 -4 9 -1 9 5 0 6 5 8 10 5 6 -3 10 -2 10 4 0 5 14 12 30 16 17 4 30
10 30 15 0 4 11 11 25 14 14 4 25 11 25 17 0 6 5 7 10 4 6 -3 10 -1 10 5 0 6
5 8 10 5 6 -3 10 -2 10 4 0 6 16 18 36 27 20 9 38 23 41 31 3 7 9 10 14 7 5
-3 12 2 15 10 3 9 13 16 22 16 8 0 12 3 9 7 -8 7 34 39 46 35 4 -1 7 2 7 8 0
16 76 90 85 82 5 -4 5 -2 1 5 -3 6 4 19 16 27 12 9 19 16 15 16 -4 0 1 8 11
18 33 36 57 67 55 73 -1 4 8 18 21 32 13 14 21 28 19 31 -3 3 2 8 11 12 9 3
14 10 11 14 -3 5 1 15 9 23 8 8 12 17 9 21 -4 3 0 6 7 6 7 0 11 3 7 6 -3 3 3
15 13 26 10 11 21 35 25 54 3 19 10 34 14 34 8 0 12 12 26 63 2 4 3 12 4 18 0
5 5 8 10 5 5 -4 7 2 4 13 -3 10 3 33 12 51 12 23 13 30 3 24 -11 -6 -11 -5 0
8 7 9 14 32 16 50 2 19 6 41 11 48 10 17 18 74 19 142 1 32 3 58 7 58 9 0 4
65 -6 72 -7 5 -7 8 0 8 10 0 12 3718 3 3795 -2 17 -8 36 -12 43 -4 7 -4 12 0
12 3 0 1 6 -5 14 -8 9 -8 15 -2 18 7 2 5 13 -4 31 -9 19 -10 25 -2 20 8 -4 7
-1 -1 10 -8 9 -11 21 -7 27 3 5 2 10 -4 10 -6 0 -8 7 -5 15 4 8 1 15 -6 15 -6
0 -8 5 -5 10 4 6 0 24 -9 40 -8 17 -10 28 -5 24 5 -3 0 11 -11 30 -11 20 -16
36 -12 36 4 0 0 5 -8 10 -11 7 -12 10 -2 10 10 0 9 4 -2 16 -9 8 -14 20 -11
25 4 5 1 9 -5 9 -6 0 -8 5 -5 10 3 6 1 10 -5 10 -6 0 -8 5 -5 10 3 6 1 10 -5
10 -6 0 -8 5 -5 10 3 6 1 10 -5 10 -6 0 -8 5 -5 10 3 6 1 10 -5 10 -6 0 -8 5
-5 10 3 6 1 10 -4 10 -6 0 -11 7 -11 15 0 8 -5 15 -11 15 -5 0 -8 4 -4 9 3 5
-6 22 -20 37 -14 15 -25 35 -25 45 0 11 -7 19 -17 19 -9 0 -13 3 -10 6 16 16
-138 189 -254 284 -23 19 -48 41 -56 48 -7 7 -13 10 -13 5 0 -4 -4 -3 -8 2 -4
6 -23 22 -42 35 -19 13 -37 27 -40 30 -3 4 -25 17 -50 31 -25 13 -47 27 -50
30 -3 3 -22 12 -42 20 -21 7 -38 17 -38 23 0 5 -3 6 -6 3 -4 -3 -15 -2 -26 4
-11 6 -32 13 -46 15 -15 3 -29 8 -32 12 -6 9 -30 15 -52 14 -10 0 -18 2 -18 6
0 4 -10 9 -22 10 -38 4 -52 7 -67 16 -11 7 -12 6 -6 -5 8 -12 6 -12 -8 0 -9 7
-17 10 -17 5 0 -5 -5 -2 -10 6 -6 10 -10 11 -10 3 0 -9 -7 -10 -25 -3 -14 5
-25 6 -25 2 0 -4 -5 0 -10 8 -6 10 -10 11 -10 3 0 -9 -7 -10 -22 -5 -13 4
-191 8 -395 7 -205 0 -373 4 -373 8 0 5 -5 5 -12 1 -19 -12 -438 -11 -438 1 0
6 -5 3 -11 -5 -8 -12 -12 -12 -16 -2 -4 10 -8 10 -19 1 -11 -9 -14 -8 -14 2 0
11 -3 11 -11 -1 -8 -11 -12 -12 -16 -2 -2 6 -10 9 -16 5 -12 -7 -217 -6 -225
2 -3 3 -11 0 -18 -6 -8 -6 -14 -6 -18 0 -4 6 -18 6 -36 1 -20 -6 -30 -5 -34 3
-3 8 -5 7 -5 -2 -1 -11 -4 -11 -16 -1 -8 7 -15 8 -15 3 0 -5 -24 -6 -56 -3
-30 3 -57 2 -60 -2 -3 -5 -10 -5 -16 -2 -15 10 -108 10 -108 1 0 -5 -5 -5 -11
-1 -16 10 -219 11 -219 1 0 -5 -6 -5 -12 0 -7 4 -20 6 -30 5 -9 -2 -19 2 -23
8 -5 8 -11 8 -21 -1 -8 -6 -27 -9 -44 -7 -16 2 -32 0 -34 -6 -3 -8 -5 -7 -5 0
-1 8 -14 9 -41 4 -22 -4 -42 -5 -45 -2 -3 3 -26 5 -51 3 -36 -2 -45 0 -39 11
3 7 0 5 -8 -5 -10 -12 -17 -14 -22 -8 -4 8 -12 8 -26 1 -10 -6 -19 -7 -19 -3
0 4 -22 8 -50 8 -27 0 -50 -4 -50 -8 0 -5 -5 -5 -11 -1 -16 9 -119 10 -119 1
0 -5 -5 -5 -11 -1 -16 10 -219 11 -219 1 0 -5 -5 -5 -12 -1 -18 12 -58 11 -59
-1 0 -5 -4 -1 -9 10 -5 11 -9 14 -9 6z"/>
</g>
</svg>
